PathFileType	3	(X/Y/Z)	F:\ViconData\AntennenMessung\Messung1\Session1\ID20.trc
DataRate	CameraRate	NumFrames	NumMarkers	Units	OrigDataRate	OrigDataStartFrame	OrigNumFrames
120.0	120.0	5	70	mm	120.0	1	1036	
Frame#	Time	Ashort			Along			Atop			A4			Bshort			Blong			Btop			B4			Cshort			Clong			Ctop			C4			Dshort			Dlong			Dtop			D4			Eshort			Elong			Etop			E4			Fshort			Flong			Ftop			F4			Gshort			Glong			Gtop			G4			Hshort			Hlong			Htop			H4			I1			I2			I3			I4			I5			WandAshort			WandAlong			WandAtop			WandA4			WandA15			WandBshort			WandB4			WandB5			WandBtop			WandBlong			WandCshort			WandClong			WandCtop			WandC4			WandC5			Acenter			Aantenna			Bcenter			Bantenna			Ccenter			Cantenna			Dcenter			Dantenna			Ecenter			Eantenna			Fcenter			Fantenna			Gcenter			Gantenna			Hcenter			Hantenna			Icenter			Iantenna			
		X1	Y1	Z1	X2	Y2	Z2	X3	Y3	Z3	X4	Y4	Z4	X5	Y5	Z5	X6	Y6	Z6	X7	Y7	Z7	X8	Y8	Z8	X9	Y9	Z9	X10	Y10	Z10	X11	Y11	Z11	X12	Y12	Z12	X13	Y13	Z13	X14	Y14	Z14	X15	Y15	Z15	X16	Y16	Z16	X17	Y17	Z17	X18	Y18	Z18	X19	Y19	Z19	X20	Y20	Z20	X21	Y21	Z21	X22	Y22	Z22	X23	Y23	Z23	X24	Y24	Z24	X25	Y25	Z25	X26	Y26	Z26	X27	Y27	Z27	X28	Y28	Z28	X29	Y29	Z29	X30	Y30	Z30	X31	Y31	Z31	X32	Y32	Z32	X33	Y33	Z33	X34	Y34	Z34	X35	Y35	Z35	X36	Y36	Z36	X37	Y37	Z37	X38	Y38	Z38	X39	Y39	Z39	X40	Y40	Z40	X41	Y41	Z41	X42	Y42	Z42	X43	Y43	Z43	X44	Y44	Z44	X45	Y45	Z45	X46	Y46	Z46	X47	Y47	Z47	X48	Y48	Z48	X49	Y49	Z49	X50	Y50	Z50	X51	Y51	Z51	X52	Y52	Z52	X53	Y53	Z53	X54	Y54	Z54	X55	Y55	Z55	X56	Y56	Z56	X57	Y57	Z57	X58	Y58	Z58	X59	Y59	Z59	X60	Y60	Z60	X61	Y61	Z61	X62	Y62	Z62	X63	Y63	Z63	X64	Y64	Z64	X65	Y65	Z65	X66	Y66	Z66	X67	Y67	Z67	X68	Y68	Z68	X69	Y69	Z69	X70	Y70	Z70	
1	0	-1038.225	214.53439	-1644.1953	-1109.4103	204.16054	-1599.3462	-1063.7476	172.46898	-1625.6256	-1054.1656	262.11923	-1634.9711	-1352.9893	235.01726	1003.4551	-1281.465	227.06712	1052.542	-1322.7585	193.84729	1020.9248	-1284.6948	287.85324	1052.6736	813.87201	187.8278	1209.5645	892.98352	179.32417	1178.548	844.65558	144.98511	1198.5402	860.8772	292.44937	1168.406	1115.7833	209.88701	-1401.8535	1056.1803	194.07788	-1460.4244	1094.9949	162.32848	-1423.9764	1069.8148	238.6729	-1425.9952	-1204.5265	1685.8699	-1563.245	-1129.1289	1688.2389	-1605.9906	-1173.196	1724.4186	-1581.9576	-1134.0472	1580.9457	-1603.8276	-1239.7461	1699.3383	1119.6437	-1309.2758	1698.6606	1071.9707	-1270.4084	1736.2703	1096.947	-1245.4292	1592.6378	1110.7561	988.92297	1664.1864	1162.2212	955.87158	1702.3688	1181.1145	922.83209	1661.8754	1215.2028	939.70129	1659.3832	1159.991	999.00629	1668.4382	-1579.5072	1058.6974	1669.9231	-1518.7706	1024.9183	1707.9885	-1551.2009	1059.1693	1672.1578	-1585.545	-113.66458	160.09259	-224.0327	-29.167358	168.66348	-221.10657	-72.07444	126.98569	-224.64728	-75.872658	164.9906	-254.8488	-78.514809	163.11346	-175.48846																																														-1068.7939	210.07956	-1624.9358	-1073.9794	248.72679	-1624.2269	-1321.4418	231.51065	1025.106	-1320.0873	270.24911	1029.4065	847.95074	184.1647	1196.2035	851.21362	222.95905	1193.8898	1088.6997	202.70334	-1428.468	1082.7275	241.00706	-1432.7294	-1171.8961	1686.895	-1581.7443	-1170.5458	1647.9191	-1581.5227	-1270.9418	1699.0342	1098.2543	-1271.5	1660.0621	1099.6226	953.71252	1704.8628	1182.3486	973.04474	1731.7744	1161.781	1026.3634	1669.1187	-1551.6708	1027.8123	1630.1484	-1552.142	-75.887871	163.92442	-222.72449	-79.887459	202.66635	-220.70784
2	0.0083333333	-1038.2296	214.52792	-1644.1835	-1109.3955	204.09053	-1599.2996	-1063.8312	172.41852	-1625.6128	-1054.1865	262.14172	-1634.9949	-1352.9878	234.77351	1003.47	-1281.407	227.11626	1052.5299	-1322.7079	193.87697	1020.9023	-1284.7428	287.82114	1052.7119	814.05536	187.49962	1209.4768	892.94055	179.4147	1178.5507	844.15021	145.6088	1198.3802	860.76715	292.20801	1168.4454	1115.7805	209.9189	-1401.8574	1056.1597	194.0643	-1460.3912	1095.058	162.32814	-1423.963	1069.8367	238.67043	-1425.9923	-1204.5212	1685.8546	-1563.2448	-1129.1298	1688.2411	-1606.0063	-1173.1899	1724.4252	-1581.9583	-1134.0515	1580.9352	-1603.8135	-1239.7184	1699.2906	1119.6375	-1309.3688	1698.7518	1071.99	-1270.4065	1736.2783	1096.9492	-1245.3654	1592.5547	1110.7205	988.83307	1664.1292	1162.222	955.95862	1702.2432	1181.097	922.91241	1661.9143	1215.1953	939.74945	1659.3806	1159.9769	998.99921	1668.4224	-1579.5061	1058.6859	1669.9066	-1518.7528	1024.9171	1707.9838	-1551.2059	1059.1659	1672.1582	-1585.5325	-113.6522	160.09639	-224.04958	-29.159557	168.66805	-221.09332	-72.057198	127.02082	-224.64781	-75.874786	164.97717	-254.82384	-78.522964	163.14476	-175.47054																																														-1068.8717	210.03384	-1624.8575	-1074.0504	248.68069	-1624.0819	-1321.5249	231.40779	1025.0339	-1320.3035	270.1546	1029.2994	847.33014	184.08929	1196.4318	850.53802	222.90741	1194.4662	1088.7081	202.71974	-1428.4359	1082.6876	241.01811	-1432.6771	-1171.8865	1686.8876	-1581.7549	-1170.533	1647.9116	-1581.5438	-1270.9999	1699.0485	1098.2379	-1271.6212	1660.0769	1099.5868	953.76428	1704.7872	1182.3568	973.11011	1731.6709	1161.7654	1026.3513	1669.1024	-1551.665	1027.7888	1630.1316	-1552.1252	-75.868706	163.92946	-222.7276	-79.86953	202.67133	-220.71202
3	0.016666667	-1038.2476	214.50935	-1644.1549	-1109.394	204.13989	-1599.3297	-1063.7734	172.45471	-1625.6433	-1054.1763	262.14471	-1634.991	-1352.9584	234.76448	1003.7025	-1281.4534	227.09636	1052.5715	-1322.7433	193.87421	1020.949	-1284.7233	287.84799	1052.7271	813.92444	187.75365	1209.5352	892.90985	179.31729	1178.5691	844.25177	145.51091	1198.5046	860.8689	292.44302	1168.4913	1115.7346	209.49371	-1401.6013	1056.1864	194.10077	-1460.4021	1095.0579	162.38884	-1423.9764	1069.8285	238.6568	-1425.9961	-1204.5453	1685.874	-1563.2323	-1129.1014	1688.2548	-1605.9926	-1173.2029	1724.4128	-1581.9476	-1134.0416	1580.9391	-1603.8312	-1239.7224	1699.2917	1119.6246	-1309.3995	1698.8093	1072.007	-1270.4464	1736.3282	1096.9703	-1245.4026	1592.6333	1110.7578	988.86609	1664.1382	1162.2335	955.81763	1702.2878	1180.9883	922.92578	1661.8988	1215.2408	939.72894	1659.403	1159.9927	998.99316	1668.4241	-1579.5122	1058.868	1670.1853	-1518.7511	1024.9243	1707.9867	-1551.1981	1059.1646	1672.158	-1585.5247	-113.69286	160.08563	-224.03145	-29.160198	168.65887	-221.09254	-72.067795	126.98579	-224.63953	-75.872986	164.99165	-254.85089	-78.51445	163.11142	-175.49437																																														-1068.7922	210.05753	-1624.9105	-1073.9508	248.7075	-1624.1573	-1321.5858	231.40012	1025.1436	-1320.3909	270.14056	1029.4739	847.53809	184.16339	1196.3569	850.83704	222.96375	1194.2009	1088.8242	202.53751	-1428.1738	1082.8726	240.87175	-1432.1815	-1171.8988	1686.9041	-1581.7355	-1170.5441	1647.9282	-1581.515	-1271.0426	1699.0747	1098.22	-1271.6664	1660.1017	1099.5276	953.66779	1704.7694	1182.2083	972.93024	1731.6313	1161.5107	1026.4854	1669.2327	-1551.613	1028.0551	1630.2666	-1552.0304	-75.880524	163.92052	-222.71684	-79.879814	202.66248	-220.70009
4	0.025	-1038.2168	214.52875	-1644.1772	-1109.3821	204.11411	-1599.3083	-1063.7955	172.44402	-1625.6095	-1054.1804	262.14471	-1635.0022	-1352.9607	234.98233	1003.6829	-1281.4358	227.10333	1052.512	-1322.7925	193.84926	1020.9383	-1284.7417	287.85669	1052.7443	813.92004	187.82057	1209.5953	893.00635	179.44003	1178.6064	844.18726	145.56227	1198.4291	860.85889	292.4086	1168.5188	1115.7867	209.90964	-1401.8569	1056.1666	194.05698	-1460.4	1095.0132	162.32652	-1424.0225	1069.8105	238.64507	-1426.0123	-1204.5266	1685.8673	-1563.2433	-1129.1075	1688.255	-1606.0096	-1173.1957	1724.4269	-1581.9617	-1134.0431	1580.947	-1603.8364	-1239.7332	1699.3153	1119.6295	-1309.3667	1698.7649	1071.99	-1270.4369	1736.3204	1096.9666	-1245.384	1592.5797	1110.7527	988.85297	1664.1417	1162.2183	955.76843	1702.1843	1180.9762	922.77997	1661.9785	1215.15	939.72833	1659.4249	1159.9625	998.99713	1668.4363	-1579.5039	1058.8662	1670.1794	-1518.749	1024.9182	1707.9823	-1551.2058	1059.1622	1672.1481	-1585.5302	-113.27994	159.53671	-223.76204	-29.155575	168.65747	-221.08936	-72.049805	126.99202	-224.65228	-75.84552	164.98305	-254.85358	-78.489388	163.14728	-175.46809																																														-1068.8345	210.04802	-1624.873	-1074.0129	248.69525	-1624.1163	-1321.5173	231.51862	1025.1488	-1320.2062	270.25534	1029.4785	847.50659	184.26149	1196.4347	850.83514	223.0677	1194.4349	1088.6646	202.69798	-1428.4891	1082.642	240.99646	-1432.7264	-1171.8881	1686.9005	-1581.7507	-1170.53	1647.9248	-1581.5319	-1271.0085	1699.0681	1098.2325	-1271.6067	1660.0951	1099.557	953.44843	1704.8518	1182.2914	972.70392	1731.7703	1161.6609	1026.4707	1669.2362	-1551.6238	1028.032	1630.2697	-1552.0443	-76.081383	163.56976	-222.58022	-80.347305	202.27371	-220.3877
5	0.033333333	-1038.2493	214.5094	-1644.1792	-1109.3981	204.09288	-1599.3075	-1063.7955	172.45473	-1625.6083	-1054.1555	262.15857	-1634.9866	-1353.019	234.6823	1003.7568	-1281.3798	227.07265	1052.4905	-1322.7722	193.83064	1021.0012	-1284.7441	287.81992	1052.7574	813.89142	187.76466	1209.5889	892.84064	179.66707	1178.4846	844.24359	145.66589	1198.3334	860.92944	292.45438	1168.2854	1115.7296	209.51393	-1401.6091	1056.1555	194.04657	-1460.4091	1095.0687	162.32756	-1423.9342	1069.8252	238.64949	-1425.9882	-1204.531	1685.8666	-1563.2372	-1129.1305	1688.2822	-1606.0215	-1173.1896	1724.4218	-1581.9564	-1134.0419	1580.9501	-1603.8488	-1239.7274	1699.2987	1119.6354	-1309.2677	1698.6562	1071.9701	-1270.4015	1736.2727	1096.9448	-1245.4104	1592.6401	1110.7583	988.87256	1664.1641	1162.2554	956.02911	1702.3585	1181.0471	922.9245	1661.8613	1215.224	939.72229	1659.3829	1159.9823	998.98706	1668.4368	-1579.5094	1058.6931	1669.9135	-1518.7465	1024.9219	1707.9922	-1551.192	1059.1774	1672.1556	-1585.5289	-113.24237	159.54732	-223.77736	-29.169918	168.6407	-221.09833	-72.110962	126.98819	-224.62553	-75.849243	164.96136	-254.82237	-78.500031	163.1452	-175.46231																																														-1068.8411	210.03058	-1624.8856	-1074.0304	248.67665	-1624.1426	-1321.5973	231.34462	1025.1318	-1320.3838	270.09155	1029.3982	847.43622	184.32405	1196.3729	850.64209	223.1422	1194.4043	1088.8157	202.52621	-1428.1732	1082.8535	240.85526	-1432.2151	-1171.8789	1686.9126	-1581.7646	-1170.5172	1647.9369	-1581.5657	-1270.9438	1699.0103	1098.2385	-1271.5112	1660.0378	1099.5916	953.95276	1704.7729	1182.235	973.34869	1731.5973	1161.6134	1026.3557	1669.1135	-1551.6561	1027.7931	1630.1428	-1552.1215	-76.131462	163.56126	-222.59479	-80.38662	202.26883	-220.44553
